<?xml version="1.0" encoding="iso-8859-1"?>
<!-- Generator: Adobe Illustrator 19.0.0, SVG Export Plug-In . SVG Version: 6.00 Build 0)  -->
<svg version="1.1" id="Layer_1" xmlns="http://www.w3.org/2000/svg" xmlns:xlink="http://www.w3.org/1999/xlink" x="0px" y="0px"
	 viewBox="0 0 512 512" style="enable-background:new 0 0 512 512;" xml:space="preserve">
<g>
	<polygon style="fill:#E0E0E0;" points="405.2,272 404.4,288 108.4,288 108,289.2 106.8,272.8 108.4,272 404.4,272 	"/>
	<polygon style="fill:#E0E0E0;" points="406.4,256 405.2,272 404.4,272 108.4,272 106.8,273.2 105.6,256.8 108.4,256 	"/>
	<polygon style="fill:#E0E0E0;" points="403.2,304 402,320 400.4,320 112.4,320 110.4,320 109.2,304 	"/>
	<polygon style="fill:#E0E0E0;" points="423.2,20 407.6,240 108.4,240 104.4,240.4 88.4,20 120.4,20 	"/>
	<polygon style="fill:#E0E0E0;" points="400.8,336 399.6,352 112.4,352 111.6,336 112.4,336 400.4,336 	"/>
	<polygon style="fill:#E0E0E0;" points="399.6,352 398.4,368 396.4,368 116.4,368 113.6,368 112.4,352 	"/>
	<polygon style="fill:#E0E0E0;" points="407.6,240 406.4,256 108.4,256 105.6,257.2 104.4,240.8 108.4,240 	"/>
	<polygon style="fill:#E0E0E0;" points="404.4,288 403.2,304 109.2,304 108,288 108.4,288 	"/>
	<polygon style="fill:#E0E0E0;" points="398.4,369.2 397.2,384.4 396.4,384 116.4,384 114.8,385.2 113.6,368.8 116.4,368 396.4,368 
			"/>
	<path style="fill:#E0E0E0;" d="M396.4,400l-5.2,75.2c-1.6,17.6-16.8,32.8-34.4,32.8H156c-17.6,0-33.2-15.2-34.4-32.8L116,400l0,0
		H396.4z"/>
	<polygon style="fill:#E0E0E0;" points="397.2,384 396.4,400 116.4,400 116,400 114.8,384 116.4,384 396.4,384 	"/>
	<polygon style="fill:#E0E0E0;" points="402,321.2 400.8,336.4 400.4,336 112.4,336 111.6,337.2 110.4,320.8 112.4,320 400.4,320 	
		"/>
</g>
<path style="fill:#BDBDBD;" d="M88.4,19.6L88.4,19.6L88.4,19.6L84,20c-2.4,0-4.4,0-5.6-1.2c-1.6-1.6-2.4-4-2.4-6
	c0-4.4,3.6-8.4,8-8.4h344c2.4,0,4.4,2,5.6,3.2c1.6,1.6,2.4,2.8,2.4,5.2c0,4.4-3.6,7.6-8,7.6h-4.8v-1.2L88.4,19.6z"/>
<path d="M356.4,512H156c-19.6,0-36.8-16-38.4-35.6L84.4,22c0-2.4,1.6-4,3.6-4.4c2,0,4,1.6,4.4,3.6l33.2,454.4
	c1.2,15.6,14.8,28,30.4,28h200.4c15.6,0,29.2-12.8,30.4-28l32.4-454c0-2.4,2-4,4.4-3.6c2.4,0,4,2,3.6,4.4l-32.4,454.4
	C393.2,496,376,512,356.4,512z"/>
<path d="M428,24H120c-2.4,0-4-1.6-4-4s1.6-4,4-4h308c0.8,0,4,0,4-3.2c0-1.2-0.8-2.8-1.2-3.2c-1.2-1.2-2-1.6-2.8-1.6H84
	c-2,0-4,2.4-4,4.8c0,0.8,0,1.2,1.2,2.4C81.6,15.6,82,16,84,16h4c2.4,0,4,1.6,4,4s-1.6,4-4,4h-4c-1.2,0-5.6,0-8.4-3.2
	c-1.6-1.6-3.6-4-3.6-8C72,6,77.6,0,84,0h344c3.6,0,6.8,2.4,8.4,4c2,2,3.6,5.6,3.6,8.8C440,19.2,434.8,24,428,24z"/>
<path d="M404,244H108c-2.4,0-4-1.6-4-4s1.6-4,4-4h296c2.4,0,4,1.6,4,4S406.4,244,404,244z"/>
<path d="M404,260H108c-2.4,0-4-1.6-4-4s1.6-4,4-4h296c2.4,0,4,1.6,4,4S406.4,260,404,260z"/>
<path d="M404,276H108c-2.4,0-4-1.6-4-4s1.6-4,4-4h296c2.4,0,4,1.6,4,4S406.4,276,404,276z"/>
<path d="M404.4,292H108c-2.4,0-4-1.6-4-4s1.6-4,4-4h296.4c2.4,0,4,1.6,4,4S406.4,292,404.4,292z"/>
<path d="M400,308H112c-2.4,0-4-1.6-4-4s1.6-4,4-4h288c2.4,0,4,1.6,4,4S402.4,308,400,308z"/>
<path d="M400,324H112c-2.4,0-4-1.6-4-4s1.6-4,4-4h288c2.4,0,4,1.6,4,4S402.4,324,400,324z"/>
<path d="M400,340H112c-2.4,0-4-1.6-4-4s1.6-4,4-4h288c2.4,0,4,1.6,4,4S402.4,340,400,340z"/>
<path d="M396,356H116c-2.4,0-4-1.6-4-4s1.6-4,4-4h280c2.4,0,4,1.6,4,4S398.4,356,396,356z"/>
<path d="M396,372H116c-2.4,0-4-1.6-4-4s1.6-4,4-4h280c2.4,0,4,1.6,4,4S398.4,372,396,372z"/>
<path d="M396,388H116c-2.4,0-4-1.6-4-4s1.6-4,4-4h280c2.4,0,4,1.6,4,4S398.4,388,396,388z"/>
<path d="M396.4,404H116c-2.4,0-4-1.6-4-4s1.6-4,4-4h280.4c2.4,0,4,1.6,4,4S398.4,404,396.4,404z"/>
<g>
</g>
<g>
</g>
<g>
</g>
<g>
</g>
<g>
</g>
<g>
</g>
<g>
</g>
<g>
</g>
<g>
</g>
<g>
</g>
<g>
</g>
<g>
</g>
<g>
</g>
<g>
</g>
<g>
</g>
</svg>
